<svg width="284" height="67" viewBox="0 0 284 67" fill="none" xmlns="http://www.w3.org/2000/svg">
<path d="M0 0H16C21.6 0 24.2 3.6 24.2 7.2C24.2 10.7 22 13.1 19.4 13.7C22.4 14.2 24.8 17 24.8 20.6C24.8 24.7 22.1 28.3 16.5 28.3H0V0ZM14.4 10.9C15.9 10.9 16.9 9.8 16.9 8.4C16.9 7 15.9 6 14.4 6H7.3V10.9H14.4ZM14.6 22.2C16.3 22.2 17.4 21.1 17.4 19.6C17.4 18.2 16.4 16.9 14.6 16.9H7.3V22.1H14.6V22.2Z" fill="#A9A9A9"/>
<path d="M51 24H39.3L37.9 28.3H30L40.6 0.0999756H49.7L60.4 28.3H52.5L51 24ZM41.2 17.8H49.1L45.1 6.29998L41.2 17.8Z" fill="#A9A9A9"/>
<path d="M77.7 18.7H73.9999V28.3H66.7V0H80.7999C87.0999 0 90.6 4.1 90.6 9.4C90.6 14.3 87.5999 16.9 84.9999 17.9L90.7 28.3H82.3999L77.7 18.7ZM79.7 6.2H73.9999V12.5H79.7C81.6 12.5 83.2 11.3 83.2 9.3C83.2 7.4 81.6 6.2 79.7 6.2Z" fill="#A9A9A9"/>
<path d="M146.5 16.9H134.8V28.2H127.5V0H134.8V10.5H146.5V0H153.8V28.2H146.5V16.9Z" fill="#A9A9A9"/>
<path d="M104.7 6.39997H96.8V0.0999756H119.8V6.39997H111.9V28.3H104.6V6.39997H104.7Z" fill="#A9A9A9"/>
<path d="M181.1 24H169.4L168 28.3H160.1L170.7 0.0999756H179.8L190.5 28.3H182.6L181.1 24ZM171.3 17.8H179.2L175.2 6.29998L171.3 17.8Z" fill="#A9A9A9"/>
<path d="M195.2 0H202.6V16.5C202.6 19.8 204.4 22.2 208.3 22.2C212.2 22.2 214 19.8 214 16.5V0H221.4V16.8C221.4 23.8 217.4 28.8 208.3 28.8C199.3 28.8 195.2 23.8 195.2 16.9V0Z" fill="#A9A9A9"/>
<path d="M230.6 0H251.3V6.1H237.9V10.8H251V17H237.9V22.1H251.3V28.2H230.6V0Z" fill="#A9A9A9"/>
<path d="M270.8 18.7H267.1V28.3H259.8V0H273.9C280.2 0 283.7 4.1 283.7 9.4C283.7 14.3 280.7 16.9 278.1 17.9L283.8 28.3H275.5L270.8 18.7ZM272.8 6.2H267.1V12.5H272.8C274.7 12.5 276.3 11.3 276.3 9.3C276.3 7.4 274.7 6.2 272.8 6.2Z" fill="#A9A9A9"/>
<path d="M0.899977 63.6C1.79998 64.7 3.29998 65.6 5.29998 65.6C8.19998 65.6 8.99998 64 8.99998 62.8C8.99998 60.8 7.09998 60.3 5.09998 59.7C2.89998 59.1 0.499977 58.5 0.499977 55.9C0.499977 53.6 2.59998 52.1 5.09998 52.1C7.19998 52.1 8.79997 52.8 9.89997 54.1L9.09998 55C8.09998 53.8 6.59998 53.2 5.09998 53.2C3.19998 53.2 1.79998 54.3 1.79998 55.8C1.79998 57.5 3.59998 58 5.49998 58.5C7.79998 59.1 10.3 59.9 10.3 62.7C10.3 64.5 9.09998 66.7 5.29998 66.7C2.99998 66.7 1.19998 65.8 0.0999756 64.5L0.899977 63.6Z" fill="#7F6DF5"/>
<path d="M25.8 52.2C29.9 52.2 32.6 55.4 32.6 59.5C32.6 63.6 29.9 66.8 25.8 66.8C21.7 66.8 19 63.6 19 59.5C19 55.3 21.7 52.2 25.8 52.2ZM25.8 53.3C22.4 53.3 20.2 55.9 20.2 59.5C20.2 63 22.4 65.7 25.8 65.7C29.2 65.7 31.4 63.1 31.4 59.5C31.4 55.9 29.2 53.3 25.8 53.3Z" fill="#7F6DF5"/>
<path d="M42 52.4H50.9V53.5H43.2V58.7H50.8V59.8H43.2V66.5H42V52.4Z" fill="#7F6DF5"/>
<path d="M63.4 53.5H58.8V52.4H69.2001V53.5H64.6001V66.5H63.4V53.5Z" fill="#7F6DF5"/>
<path d="M85.4999 54.4L82.1 66.5H80.7L76.7 52.4H78.1L81.4999 64.8L84.9999 52.4H86.1L89.6 64.8L92.9999 52.4H94.3999L90.3999 66.5H88.9999L85.4999 54.4Z" fill="#7F6DF5"/>
<path d="M110.5 63H103L101.6 66.5H100.2L106 52.4H107.5L113.3 66.5H111.9L110.5 63ZM103.4 61.9H110.1L106.7 53.6L103.4 61.9Z" fill="#7F6DF5"/>
<path d="M126 60.7H122.9V66.5H121.7V52.4H127C129.4 52.4 131.3 53.9 131.3 56.5C131.3 59.1 129.5 60.5 127.4 60.6L131.5 66.5H130L126 60.7ZM126.9 53.5H123V59.6H126.9C128.8 59.6 130 58.3 130 56.6C130 54.9 128.7 53.5 126.9 53.5Z" fill="#7F6DF5"/>
<path d="M140.6 52.4H149.5V53.5H141.8V58.7H149.4V59.8H141.8V65.4H149.5V66.5H140.6V52.4Z" fill="#7F6DF5"/>
<path d="M174.2 53.5H169.6V52.4H180V53.5H175.4V66.5H174.2V53.5Z" fill="#7F6DF5"/>
<path d="M188.9 52.4H190.1V61.1C190.1 64 191.6 65.7 194.4 65.7C197.2 65.7 198.7 64 198.7 61.1V52.4H199.9V61.1C199.9 64.6 198 66.8 194.4 66.8C190.8 66.8 188.9 64.6 188.9 61.1V52.4Z" fill="#7F6DF5"/>
<path d="M211 54.3V66.5H209.8V52.4H211L219.8 64.4V52.4H221V66.5H219.8L211 54.3Z" fill="#7F6DF5"/>
<path d="M230.9 52.4H232.1V66.5H230.9V52.4Z" fill="#7F6DF5"/>
<path d="M241.9 63.6C242.8 64.7 244.3 65.6 246.3 65.6C249.2 65.6 250 64 250 62.8C250 60.8 248.1 60.3 246.1 59.7C243.9 59.1 241.5 58.5 241.5 55.9C241.5 53.6 243.6 52.1 246.1 52.1C248.2 52.1 249.8 52.8 250.9 54.1L250.1 55C249.1 53.8 247.6 53.2 246.1 53.2C244.2 53.2 242.8 54.3 242.8 55.8C242.8 57.5 244.6 58 246.5 58.5C248.8 59.1 251.3 59.9 251.3 62.7C251.3 64.5 250.1 66.7 246.3 66.7C244 66.7 242.2 65.8 241.1 64.5L241.9 63.6Z" fill="#7F6DF5"/>
<path d="M260.5 52.4H261.7V66.5H260.5V52.4Z" fill="#7F6DF5"/>
<path d="M280.4 63H272.9L271.5 66.5H270.1L275.9 52.4H277.4L283.2 66.5H281.8L280.4 63ZM273.3 61.9H280L276.6 53.6L273.3 61.9Z" fill="#7F6DF5"/>
</svg>
