<svg width="379" height="433" viewBox="0 0 379 433" fill="none" xmlns="http://www.w3.org/2000/svg">
<path d="M0 0.700012H244C329.4 0.700012 369 55.6 369 110.5C369 163.9 335.5 200.5 295.8 209.6C341.5 217.2 378.1 259.9 378.1 314.8C378.1 377.3 336.9 432.2 251.5 432.2H0V0.700012ZM219.6 166.9C242.5 166.9 257.7 150.1 257.7 128.8C257.7 107.5 242.5 92.2 219.6 92.2H111.3V166.9H219.6ZM222.6 339.2C248.5 339.2 265.3 322.4 265.3 299.6C265.3 278.3 250.1 258.4 222.6 258.4H111.3V337.7H222.6V339.2Z" fill="#A9A9A9"/>
</svg>
