<svg width="341" height="128" viewBox="0 0 341 128" fill="none" xmlns="http://www.w3.org/2000/svg">
<path d="M28.2 28.2H44.2C49.8 28.2 52.4 31.8 52.4 35.4C52.4 38.9 50.2 41.3 47.6 41.9C50.6 42.4 53 45.2 53 48.8C53 52.9 50.3 56.5 44.7 56.5H28.2V28.2ZM42.6 39.1C44.1 39.1 45.1 38 45.1 36.6C45.1 35.2 44.1 34.2 42.6 34.2H35.5V39.1H42.6ZM42.8 50.4C44.5 50.4 45.6 49.3 45.6 47.8C45.6 46.4 44.6 45.1 42.8 45.1H35.5V50.3H42.8V50.4Z" fill="#A9A9A9"/>
<path d="M79.2 52.2H67.5L66.1 56.5H58.2L68.8 28.3H77.9L88.6 56.5H80.7L79.2 52.2ZM69.4 46H77.3L73.3 34.5L69.4 46Z" fill="#A9A9A9"/>
<path d="M105.9 46.9H102.2V56.5H94.9V28.2H109C115.3 28.2 118.8 32.3 118.8 37.6C118.8 42.5 115.8 45.1 113.2 46.1L118.9 56.5H110.6L105.9 46.9ZM107.9 34.4H102.2V40.7H107.9C109.8 40.7 111.4 39.5 111.4 37.5C111.4 35.6 109.8 34.4 107.9 34.4Z" fill="#A9A9A9"/>
<path d="M132.9 34.6H125V28.3H148V34.6H140.1V56.5H132.8V34.6H132.9Z" fill="#A9A9A9"/>
<path d="M174.7 45.1H163V56.4H155.7V28.2H163V38.7H174.7V28.2H182V56.4H174.7V45.1Z" fill="#A9A9A9"/>
<path d="M209.3 52.2H197.6L196.2 56.5H188.3L198.9 28.3H208L218.7 56.5H210.8L209.3 52.2ZM199.5 46H207.4L203.4 34.5L199.5 46Z" fill="#A9A9A9"/>
<path d="M223.4 28.2H230.8V44.7C230.8 48 232.6 50.4 236.5 50.4C240.4 50.4 242.2 48 242.2 44.7V28.2H249.6V45C249.6 52 245.6 57 236.5 57C227.5 57 223.4 52 223.4 45.1V28.2Z" fill="#A9A9A9"/>
<path d="M258.8 28.2H279.5V34.3H266.1V39H279.2V45.2H266.1V50.3H279.5V56.4H258.8V28.2Z" fill="#A9A9A9"/>
<path d="M299 46.9H295.3V56.5H288V28.2H302.1C308.4 28.2 311.9 32.3 311.9 37.6C311.9 42.5 308.9 45.1 306.3 46.1L312 56.5H303.7L299 46.9ZM301 34.4H295.3V40.7H301C302.9 40.7 304.5 39.5 304.5 37.5C304.5 35.6 302.9 34.4 301 34.4Z" fill="#A9A9A9"/>
<path d="M29.1 95.8C30 96.9 31.5 97.8 33.5 97.8C36.4 97.8 37.2 96.2 37.2 95C37.2 93 35.3 92.5 33.3 91.9C31.1 91.3 28.7 90.7 28.7 88.1C28.7 85.8 30.8 84.3 33.3 84.3C35.4 84.3 37 85 38.1 86.3L37.3 87.2C36.3 86 34.8 85.4 33.3 85.4C31.4 85.4 30 86.5 30 88C30 89.7 31.8 90.2 33.7 90.7C36 91.3 38.5 92.1 38.5 94.9C38.5 96.7 37.3 98.9 33.5 98.9C31.2 98.9 29.4 98 28.3 96.7L29.1 95.8Z" fill="#A9A9A9"/>
<path d="M54 84.4C58.1 84.4 60.8 87.6 60.8 91.7C60.8 95.8 58.1 99 54 99C49.9 99 47.2 95.8 47.2 91.7C47.2 87.5 49.9 84.4 54 84.4ZM54 85.5C50.6 85.5 48.4 88.1 48.4 91.7C48.4 95.2 50.6 97.9 54 97.9C57.4 97.9 59.6 95.3 59.6 91.7C59.6 88.1 57.4 85.5 54 85.5Z" fill="#A9A9A9"/>
<path d="M70.2 84.6H79.1V85.7H71.4V90.9H79V92H71.4V98.7H70.2V84.6Z" fill="#A9A9A9"/>
<path d="M91.6 85.7H87V84.6H97.4V85.7H92.8V98.7H91.6V85.7Z" fill="#A9A9A9"/>
<path d="M113.7 86.6L110.3 98.7H108.9L104.9 84.6H106.3L109.7 97L113.2 84.6H114.3L117.8 97L121.2 84.6H122.6L118.6 98.7H117.2L113.7 86.6Z" fill="#A9A9A9"/>
<path d="M138.7 95.2H131.2L129.8 98.7H128.4L134.2 84.6H135.7L141.5 98.7H140.1L138.7 95.2ZM131.6 94.1H138.3L134.9 85.8L131.6 94.1Z" fill="#A9A9A9"/>
<path d="M154.2 92.9H151.1V98.7H149.9V84.6H155.2C157.6 84.6 159.5 86.1 159.5 88.7C159.5 91.3 157.7 92.7 155.6 92.8L159.7 98.7H158.2L154.2 92.9ZM155.1 85.7H151.2V91.8H155.1C157 91.8 158.2 90.5 158.2 88.8C158.2 87.1 156.9 85.7 155.1 85.7Z" fill="#A9A9A9"/>
<path d="M168.8 84.6H177.7V85.7H170V90.9H177.6V92H170V97.6H177.7V98.7H168.8V84.6Z" fill="#A9A9A9"/>
<path d="M202.4 85.7H197.8V84.6H208.2V85.7H203.6V98.7H202.4V85.7Z" fill="#A9A9A9"/>
<path d="M217.1 84.6H218.3V93.3C218.3 96.2 219.8 97.9 222.6 97.9C225.4 97.9 226.9 96.2 226.9 93.3V84.6H228.1V93.3C228.1 96.8 226.2 99 222.6 99C219 99 217.1 96.8 217.1 93.3V84.6Z" fill="#A9A9A9"/>
<path d="M239.2 86.5V98.7H238V84.6H239.2L248 96.6V84.6H249.2V98.7H248L239.2 86.5Z" fill="#A9A9A9"/>
<path d="M259.1 84.6H260.3V98.7H259.1V84.6Z" fill="#A9A9A9"/>
<path d="M270.1 95.8C271 96.9 272.5 97.8 274.5 97.8C277.4 97.8 278.2 96.2 278.2 95C278.2 93 276.3 92.5 274.3 91.9C272.1 91.3 269.7 90.7 269.7 88.1C269.7 85.8 271.8 84.3 274.3 84.3C276.4 84.3 278 85 279.1 86.3L278.3 87.2C277.3 86 275.8 85.4 274.3 85.4C272.4 85.4 271 86.5 271 88C271 89.7 272.8 90.2 274.7 90.7C277 91.3 279.5 92.1 279.5 94.9C279.5 96.7 278.3 98.9 274.5 98.9C272.2 98.9 270.4 98 269.3 96.7L270.1 95.8Z" fill="#A9A9A9"/>
<path d="M288.7 84.6H289.9V98.7H288.7V84.6Z" fill="#A9A9A9"/>
<path d="M308.6 95.2H301.1L299.7 98.7H298.3L304.1 84.6H305.6L311.4 98.7H310L308.6 95.2ZM301.5 94.1H308.2L304.8 85.8L301.5 94.1Z" fill="#A9A9A9"/>
<path d="M220 69.2H120.2V71.7H220V69.2Z" fill="#6B55F2"/>
</svg>
