<svg width="20" height="20" viewBox="0 0 20 20" fill="none" xmlns="http://www.w3.org/2000/svg">
<circle cx="10" cy="10" r="10" fill="#A9A9A9"/>
<path d="M13.3922 12.726C13.8333 13.1781 14.5686 13.5479 15.549 13.5479C16.9706 13.5479 17.3628 12.8904 17.3628 12.3973C17.3628 11.5753 16.4314 11.3699 15.451 11.1233C14.3725 10.8767 13.1961 10.6301 13.1961 9.56164C13.1961 8.61644 14.2255 8 15.451 8C16.4804 8 17.2647 8.28767 17.8039 8.82192L17.4118 9.19178C16.9216 8.69863 16.1863 8.45205 15.451 8.45205C14.5196 8.45205 13.8333 8.90411 13.8333 9.52055C13.8333 10.2192 14.7157 10.4247 15.6471 10.6301C16.7745 10.8767 18 11.2055 18 12.3562C18 13.0959 17.4118 14 15.549 14C14.4216 14 13.5392 13.6301 13 13.0959L13.3922 12.726Z" fill="white"/>
<path d="M3 5H8.80645C10.8387 5 11.7823 6.27209 11.7823 7.54417C11.7823 8.78092 10.9839 9.62898 10.0403 9.84099C11.129 10.0177 12 11.0071 12 12.2792C12 13.7279 11.0202 15 8.9879 15H3V5ZM8.22581 8.85159C8.77016 8.85159 9.13306 8.4629 9.13306 7.9682C9.13306 7.4735 8.77016 7.12014 8.22581 7.12014H5.64919V8.85159H8.22581ZM8.29839 12.8445C8.91532 12.8445 9.31452 12.4558 9.31452 11.9258C9.31452 11.4311 8.95161 10.9717 8.29839 10.9717H5.64919V12.8092H8.29839V12.8445Z" fill="white"/>
</svg>
