<svg width="27" height="22" viewBox="0 0 27 22" fill="none" xmlns="http://www.w3.org/2000/svg">
<path d="M1.76923 17.3901H0V17H4V17.3901H2.23077V22H1.76923V17.3901Z" fill="#A9A9A9"/>
<path d="M5 17H5.32727V20.0208C5.32727 21.0278 5.73636 21.6181 6.5 21.6181C7.26364 21.6181 7.67272 21.0278 7.67272 20.0208V17H8V20.0208C8 21.2361 7.48182 22 6.5 22C5.51818 22 5 21.2361 5 20.0208V17Z" fill="#A9A9A9"/>
<path d="M9.42857 17.6738V22H9V17H9.42857L12.5714 21.2553V17H13V22H12.5714L9.42857 17.6738Z" fill="#A9A9A9"/>
<path d="M15 17H14V22H15V17Z" fill="#A9A9A9"/>
<path d="M16.3137 20.9384C16.6667 21.3151 17.2549 21.6233 18.0392 21.6233C19.1765 21.6233 19.4902 21.0753 19.4902 20.6644C19.4902 19.9795 18.7451 19.8082 17.9608 19.6027C17.098 19.3973 16.1569 19.1918 16.1569 18.3014C16.1569 17.5137 16.9804 17 17.9608 17C18.7843 17 19.4118 17.2397 19.8431 17.6849L19.5294 17.9931C19.1373 17.5822 18.549 17.3767 17.9608 17.3767C17.2157 17.3767 16.6667 17.7534 16.6667 18.2671C16.6667 18.8493 17.3726 19.0205 18.1177 19.1918C19.0196 19.3973 20 19.6712 20 20.6301C20 21.2466 19.5294 22 18.0392 22C17.1373 22 16.4314 21.6918 16 21.2466L16.3137 20.9384Z" fill="#A9A9A9"/>
<path d="M16.2171 13.5302C16.7625 14.1355 17.6716 14.6307 18.8837 14.6307C20.6413 14.6307 21.1261 13.7503 21.1261 13.0901C21.1261 11.9896 19.9746 11.7145 18.7625 11.3844C17.4292 11.0543 15.9747 10.7241 15.9747 9.29357C15.9747 8.02808 17.2474 7.20276 18.7625 7.20276C20.0352 7.20276 21.0049 7.58791 21.6716 8.30319L21.1867 8.79838C20.5806 8.13812 19.6716 7.80799 18.7625 7.80799C17.611 7.80799 16.7625 8.41323 16.7625 9.23855C16.7625 10.1739 17.8534 10.449 19.0049 10.7241C20.3988 11.0543 21.914 11.4944 21.914 13.035C21.914 14.0254 21.1867 15.2359 18.8837 15.2359C17.4898 15.2359 16.3989 14.7407 15.7322 14.0254L16.2171 13.5302Z" fill="#A9A9A9"/>
<path d="M21 17H22V22H21V17Z" fill="#A9A9A9"/>
<path d="M26.145 20.7589H23.855L23.4275 22H23L24.771 17H25.229L27 22H26.5725L26.145 20.7589ZM23.9771 20.3688H26.0229L24.9847 17.4255L23.9771 20.3688Z" fill="#A9A9A9"/>
<path d="M0 0H9.69682C13.0907 0 14.6664 1.98077 14.6664 3.96155C14.6664 5.8873 13.3331 7.20781 11.7574 7.53794C13.5755 7.81305 15.0301 9.35365 15.0301 11.3344C15.0301 13.5903 13.3937 15.5711 9.99984 15.5711H0V0ZM8.72714 5.99734C9.63621 5.99734 10.2423 5.3921 10.2423 4.6218C10.2423 3.8515 9.63621 3.30129 8.72714 3.30129H4.42417V5.99734H8.72714ZM8.84835 12.2148C9.87863 12.2148 10.5453 11.6095 10.5453 10.7842C10.5453 10.0139 9.93924 9.29863 8.84835 9.29863H4.42417V12.1597H8.84835V12.2148Z" fill="#A9A9A9"/>
</svg>
