<svg width="341" height="128" viewBox="0 0 341 128" fill="none" xmlns="http://www.w3.org/2000/svg">
<path d="M28 24H44C49.6 24 52.2 27.6 52.2 31.2C52.2 34.7 50 37.1 47.4 37.7C50.4 38.2 52.8 41 52.8 44.6C52.8 48.7 50.1 52.3 44.5 52.3H28V24ZM42.4 34.9C43.9 34.9 44.9 33.8 44.9 32.4C44.9 31 43.9 30 42.4 30H35.3V34.9H42.4ZM42.6 46.2C44.3 46.2 45.4 45.1 45.4 43.6C45.4 42.2 44.4 40.9 42.6 40.9H35.3V46.1H42.6V46.2Z" fill="#808183"/>
<path d="M79 48H67.3L65.9 52.3H58L68.6 24.1H77.7L88.4 52.3H80.5L79 48ZM69.2 41.8H77.1L73.1 30.3L69.2 41.8Z" fill="#808183"/>
<path d="M105.7 42.7H102V52.3H94.7V24H108.8C115.1 24 118.6 28.1 118.6 33.4C118.6 38.3 115.6 40.9 113 41.9L118.7 52.3H110.4L105.7 42.7ZM107.7 30.2H102V36.5H107.7C109.6 36.5 111.2 35.3 111.2 33.3C111.2 31.4 109.6 30.2 107.7 30.2Z" fill="#808183"/>
<path d="M174.5 40.9H162.8V52.2H155.5V24H162.8V34.5H174.5V24H181.8V52.2H174.5V40.9Z" fill="#808183"/>
<path d="M132.7 30.4H124.8V24.1H147.8V30.4H139.9V52.3H132.6V30.4H132.7Z" fill="#808183"/>
<path d="M209.1 48H197.4L196 52.3H188.1L198.7 24.1H207.8L218.5 52.3H210.6L209.1 48ZM199.3 41.8H207.2L203.2 30.3L199.3 41.8Z" fill="#808183"/>
<path d="M223.2 24H230.6V40.5C230.6 43.8 232.4 46.2 236.3 46.2C240.2 46.2 242 43.8 242 40.5V24H249.4V40.8C249.4 47.8 245.4 52.8 236.3 52.8C227.3 52.8 223.2 47.8 223.2 40.9V24Z" fill="#808183"/>
<path d="M258.6 24H279.3V30.1H265.9V34.8H279V41H265.9V46.1H279.3V52.2H258.6V24Z" fill="#808183"/>
<path d="M298.8 42.7H295.1V52.3H287.8V24H301.9C308.2 24 311.7 28.1 311.7 33.4C311.7 38.3 308.7 40.9 306.1 41.9L311.8 52.3H303.5L298.8 42.7ZM300.8 30.2H295.1V36.5H300.8C302.7 36.5 304.3 35.3 304.3 33.3C304.3 31.4 302.7 30.2 300.8 30.2Z" fill="#808183"/>
<path d="M28.9 87.6C29.8 88.7 31.3 89.6 33.3 89.6C36.2 89.6 37 88 37 86.8C37 84.8 35.1 84.3 33.1 83.7C30.9 83.1 28.5 82.5 28.5 79.9C28.5 77.6 30.6 76.1 33.1 76.1C35.2 76.1 36.8 76.8 37.9 78.1L37.1 79C36.1 77.8 34.6 77.2 33.1 77.2C31.2 77.2 29.8 78.3 29.8 79.8C29.8 81.5 31.6 82 33.5 82.5C35.8 83.1 38.3 83.9 38.3 86.7C38.3 88.5 37.1 90.7 33.3 90.7C31 90.7 29.2 89.8 28.1 88.5L28.9 87.6Z" fill="#808183"/>
<path d="M53.8 76.2C57.9 76.2 60.6 79.4 60.6 83.5C60.6 87.6 57.9 90.8 53.8 90.8C49.7 90.8 47 87.6 47 83.5C47 79.3 49.7 76.2 53.8 76.2ZM53.8 77.3C50.4 77.3 48.2 79.9 48.2 83.5C48.2 87 50.4 89.7 53.8 89.7C57.2 89.7 59.4 87.1 59.4 83.5C59.4 79.9 57.2 77.3 53.8 77.3Z" fill="#808183"/>
<path d="M70 76.4H78.9V77.5H71.2V82.7H78.8V83.8H71.2V90.5H70V76.4Z" fill="#808183"/>
<path d="M91.4 77.5H86.8V76.4H97.2001V77.5H92.6001V90.5H91.4V77.5Z" fill="#808183"/>
<path d="M113.5 78.4L110.1 90.5H108.7L104.7 76.4H106.1L109.5 88.8L113 76.4H114.1L117.6 88.8L121 76.4H122.4L118.4 90.5H117L113.5 78.4Z" fill="#808183"/>
<path d="M138.5 87H131L129.6 90.5H128.2L134 76.4H135.5L141.3 90.5H139.9L138.5 87ZM131.4 85.9H138.1L134.7 77.6L131.4 85.9Z" fill="#808183"/>
<path d="M154 84.7H150.9V90.5H149.7V76.4H155C157.4 76.4 159.3 77.9 159.3 80.5C159.3 83.1 157.5 84.5 155.4 84.6L159.5 90.5H158L154 84.7ZM154.9 77.5H151V83.6H154.9C156.8 83.6 158 82.3 158 80.6C158 78.9 156.7 77.5 154.9 77.5Z" fill="#808183"/>
<path d="M168.6 76.4H177.5V77.5H169.8V82.7H177.4V83.8H169.8V89.4H177.5V90.5H168.6V76.4Z" fill="#808183"/>
<path d="M202.2 77.5H197.6V76.4H208V77.5H203.4V90.5H202.2V77.5Z" fill="#808183"/>
<path d="M216.9 76.4H218.1V85.1C218.1 88 219.6 89.7 222.4 89.7C225.2 89.7 226.7 88 226.7 85.1V76.4H227.9V85.1C227.9 88.6 226 90.8 222.4 90.8C218.8 90.8 216.9 88.6 216.9 85.1V76.4Z" fill="#808183"/>
<path d="M239 78.3V90.5H237.8V76.4H239L247.8 88.4V76.4H249V90.5H247.8L239 78.3Z" fill="#808183"/>
<path d="M258.9 76.4H260.1V90.5H258.9V76.4Z" fill="#808183"/>
<path d="M269.9 87.6C270.8 88.7 272.3 89.6 274.3 89.6C277.2 89.6 278 88 278 86.8C278 84.8 276.1 84.3 274.1 83.7C271.9 83.1 269.5 82.5 269.5 79.9C269.5 77.6 271.6 76.1 274.1 76.1C276.2 76.1 277.8 76.8 278.9 78.1L278.1 79C277.1 77.8 275.6 77.2 274.1 77.2C272.2 77.2 270.8 78.3 270.8 79.8C270.8 81.5 272.6 82 274.5 82.5C276.8 83.1 279.3 83.9 279.3 86.7C279.3 88.5 278.1 90.7 274.3 90.7C272 90.7 270.2 89.8 269.1 88.5L269.9 87.6Z" fill="#808183"/>
<path d="M288.5 76.4H289.7V90.5H288.5V76.4Z" fill="#808183"/>
<path d="M308.4 87H300.9L299.5 90.5H298.1L303.9 76.4H305.4L311.2 90.5H309.8L308.4 87ZM301.3 85.9H308L304.6 77.6L301.3 85.9Z" fill="#808183"/>
</svg>
